<svg viewBox="0 0 1024 1024" version="1.1" xmlns="http://www.w3.org/2000/svg">
    <path d="M602.298182 843.124364c19.502545-30.673455 36.212364-70.749091 49.105454-119.389091l-52.829091-13.963637c-23.458909 88.669091-62.743273 148.293818-97.792 148.293819-35.234909 0-73.355636-57.344-97.28-146.106182l-52.736 14.196363c12.8 47.569455 29.323636 86.807273 48.500364 116.968728a355.700364 355.700364 0 0 1-191.581091-139.543273l-45.009454 30.906182a410.018909 410.018909 0 0 0 677.888-2.466909l-45.288728-30.580364a355.234909 355.234909 0 0 1-193.024 141.684364M399.220364 162.629818c-20.107636 31.557818-37.236364 73.122909-50.222546 123.764364l52.922182 13.591273c27.089455-105.192727 69.12-152.203636 98.816-152.203637 29.742545 0 71.819636 47.010909 98.862545 152.203637l52.922182-13.591273c-13.032727-50.594909-30.114909-92.16-50.176-123.717818a355.141818 355.141818 0 0 1 192.930909 141.684363l45.288728-30.580363A409.693091 409.693091 0 0 0 500.829091 93.090909a408.948364 408.948364 0 0 0-342.760727 185.064727l45.707636 29.975273a354.676364 354.676364 0 0 1 195.490909-145.501091M304.593455 640.279273v-54.458182c-22.202182 7.959273-43.985455 11.310545-67.863273 11.310545-51.525818 0-74.519273-19.269818-74.519273-94.626909 0-71.214545 22.993455-94.673455 75.357091-94.673454 24.715636 0 45.661091 3.723636 63.674182 10.053818V363.008c-18.013091-6.283636-40.634182-9.634909-67.863273-9.634909C147.921455 353.373091 93.090909 390.656 93.090909 502.877091c0 121.902545 55.668364 149.550545 140.706909 149.550545 28.066909 0 53.620364-5.026909 70.795637-12.148363M529.128727 502.877091c0 70.795636-25.553455 90.903273-79.127272 90.903273h-32.721455V411.182545h32.674909c52.363636 0 79.173818 16.756364 79.173818 91.694546z m-175.476363-145.314909v290.676363h99.653818c85.457455 0 141.591273-33.093818 141.591273-145.361454 0-121.018182-56.133818-145.314909-141.591273-145.314909H353.652364z"></path>
    <path d="M843.357091 357.562182v207.732363h-2.513455L749.521455 357.562182H652.381091v290.629818h62.836364v-221.090909h2.466909l100.538181 221.090909h87.505455V357.608727z"></path>
</svg>