<svg viewBox="0 0 1024 1024" version="1.1" xmlns="http://www.w3.org/2000/svg">
    <path d="M512.6 305.2c-81.4 0-147.3 66-147.3 147.3 0 81.4 66 147.3 147.3 147.3 81.4 0 147.3-66 147.3-147.3 0-81.4-65.9-147.3-147.3-147.3z m0 235.7c-48.8 0-88.4-39.6-88.4-88.4 0-48.8 39.6-88.4 88.4-88.4 48.8 0 88.4 39.6 88.4 88.4 0 48.8-39.6 88.4-88.4 88.4z m0 0"/>
    <path d="M511.9 98.9c-195.7 0.4-354.5 160.9-352.9 356.5 0.7 96.4 40.8 188.4 111.1 254.4h-0.1l222 209.3c11.3 10.7 29 10.7 40.4 0l220.9-207.7c72.1-66.8 113-160.7 112.9-259 0-195.4-158.7-353.9-354.3-353.5z m218 552.6c-9.6 10.5-20 20.3-31.1 29.3L512.1 857.2 316.8 672.6c-4.5-4-8.8-8.1-13.1-12.4-55-55.2-85.9-129.9-85.8-207.8 0-162.7 131.9-294.7 294.7-294.7s294.7 131.9 294.7 294.7c0 73.8-27.6 144.8-77.4 199.1z m0 0"/>
</svg>