<svg viewBox="0 0 1024 1024" version="1.1" xmlns="http://www.w3.org/2000/svg">
    <path d="M512 962C263.465 962 62 760.535 62 512 62 263.465 263.465 62 512 62c248.535 0 450 201.465 450 450 0 248.535-201.465 450-450 450z m6.27000029-475.26000029c36.83999971 0 216-100.73999971 216-100.73999971l0.29999971-18c0-19.87499971-16.13999971-36-36.06000029-36H338.03A36.01500029 36.01500029 0 0 0 302.00000029 368v16.04999971s181.10999971 102.69 216.27 102.69z m0 49.5c-35.16000029 0-216-96.23999971-215.98500058-96.23999971L302.00000029 656c0 19.87499971 16.13999971 36 36.02999971 36h360.47999971a36.02999971 36.02999971 0 0 0 36.045-36l-0.28499942-216s-177.45000029 96.23999971-216 96.23999971z"></path>
</svg>