<svg viewBox="0 0 1024 1024" version="1.1" xmlns="http://www.w3.org/2000/svg">
    <path d="M597.504 437.0944a15.36 15.36 0 0 0-15.4624 15.1552v113.2544a15.36 15.36 0 0 0 15.5136 15.1552h341.1456a15.36 15.36 0 0 0 15.5136-15.1552V452.2496a15.36 15.36 0 0 0-15.5136-15.1552h-341.1456z m209.2032-360.2432c47.2064 2.2528 81.152 11.5712 102.656 31.3344 21.248 19.5584 32.1536 47.872 34.304 85.3504v107.3664a34.5088 34.5088 0 0 1-34.8672 34.0992 34.5088 34.5088 0 0 1-34.9184-34.0992l0.0512-105.4208c-1.1264-19.456-5.7856-31.5392-12.4416-37.6832-6.4512-5.9392-26.112-11.264-56.4736-12.8H135.5264c-27.4944 1.024-45.3632 6.2464-54.016 13.6704-6.656 5.6832-11.6736 21.3504-11.7248 48.4352l-0.1536 602.624c2.56 26.3168 8.3456 43.8784 15.7696 52.6336 5.632 6.656 23.0912 13.312 48.7936 16.5888h671.5392c31.4368 0.6144 49.9712-4.096 56.2176-10.3936 6.912-7.0144 11.9296-25.4464 11.9296-55.6032v-104.704c0-18.7904 15.616-34.0992 34.9184-34.0992 19.2512 0 34.8672 15.3088 34.8672 34.0992v104.704c0 46.08-9.4208 80.5376-31.488 102.912-22.7328 23.04-58.88 32.256-107.1616 31.232L130.048 946.944c-45.9264-5.3248-78.848-17.92-98.4576-41.1136-17.7664-20.992-27.648-50.944-31.5904-92.8256V207.0528c0.1024-44.8512 10.8544-78.592 35.5328-99.6864 22.6304-19.456 55.296-28.928 98.6624-30.5664h672.512z m131.9936 292.0448c47.104 0 85.2992 37.3248 85.2992 83.3536v113.2544c0 46.0288-38.1952 83.3536-85.2992 83.3536h-341.1456c-47.104 0-85.2992-37.376-85.2992-83.3536V452.2496c0-46.0288 38.1952-83.3536 85.2992-83.3536h341.1456z m-255.8464 99.328c-23.552 0-42.6496 18.432-42.6496 41.1136 0 22.7328 19.0976 41.1136 42.6496 41.1136 23.552 0 42.6496-18.432 42.6496-41.1136 0-22.7328-19.0976-41.1648-42.6496-41.1648z"></path>
</svg>