<svg viewBox="0 0 1024 1024" version="1.1" xmlns="http://www.w3.org/2000/svg">
    <path d="M836 251.1L576 101c-39.4-22.8-88.4-22.8-127.8 0l-260 150.1c-39.4 22.8-63.9 65.2-63.9 110.7V662c0 45.5 24.5 87.9 63.9 110.7l260 150.1c19.7 11.4 41.8 17.1 63.9 17.1s44.2-5.7 63.9-17.1l260-150.1c39.4-22.8 63.9-65.2 63.9-110.7V361.8c0-45.6-24.5-88-63.9-110.7zM814.9 662c0 15.2-8.2 29.5-21.4 37.1l-260 150.1c-13.2 7.6-29.6 7.6-42.8 0L230.7 699c-13.2-7.6-21.4-21.8-21.4-37.1V361.8c0-15.2 8.2-29.5 21.4-37.1l260-150.1c6.6-3.8 14-5.7 21.4-5.7 7.4 0 14.8 1.9 21.4 5.7l260 150.1c13.2 7.6 21.4 21.8 21.4 37.1V662z"></path>
    <path d="M510.7 336c-96.8 0-175.5 78.8-175.5 175.5S414 687 510.7 687c96.8 0 175.5-78.8 175.5-175.5S607.5 336 510.7 336z m0 266.1c-49.9 0-90.5-40.6-90.5-90.5s40.6-90.5 90.5-90.5 90.5 40.6 90.5 90.5-40.6 90.5-90.5 90.5z"></path>
</svg>