<svg viewBox="0 0 1024 1024" version="1.1" xmlns="http://www.w3.org/2000/svg">
    <path d="M546.687542 307.276699c-81.498405-72.430656-239.410844-40.934764-297.973905 23.244612-106.759447 116.965304-74.892433 222.994878-33.821591 293.755484 56.150768 96.739151 162.353532 128.903064 217.675461 133.133855 197.399826 15.067556 292.815309-178.658162 342.360105-240.920073 48.654103-61.148545 102.169904-65.292742 112.388132-65.564898h1.731903c-96.071132-51.660191-175.664444 0.692761-211.329275 29.590799-66.801972 54.183821-99.868948 159.12477-226.124673 179.63545-105.151252 17.071615-165.446216-40.452305-185.981638-86.595148-53.033343-119.402339 18.086015-186.637286 52.835412-207.110854 91.308399-53.800329 153.458974-7.892529 171.23572 6.346188 36.50604 29.207306 31.236107 129.484488-67.630811 126.800038-100.895719-2.758674-71.849232-107.786218-71.849231-107.786218-39.895622 36.023582-55.086885 152.197159 42.208949 196.546245 103.914178 47.342805 195.77926-14.844883 221.906253-61.296994 43.606843-77.453175 13.917077-147.310718-67.630811-219.778486zM658.222093 0.012371c201.952257 0 365.66657 163.714313 365.66657 365.66657v292.543152c0 201.952257-163.714313 365.66657-365.66657 365.66657H365.678941C163.726684 1023.888663 0.012371 860.17435 0.012371 658.222093V365.678941C0.012371 163.726684 163.726684 0.012371 365.678941 0.012371z"></path>
</svg>