<svg viewBox="0 0 1024 1024" version="1.1" xmlns="http://www.w3.org/2000/svg">
    <path d="M693.248 335.872c-21.504-12.288-49.152-5.12-61.44 16.384L512 559.104 393.216 352.256c-12.288-21.504-39.936-28.672-61.44-16.384s-28.672 39.936-16.384 61.44l158.72 274.432v1.024c0 1.024 1.024 1.024 1.024 2.048s1.024 1.024 1.024 2.048v1.024l1.024 1.024 1.024 1.024 1.024 1.024c4.096 4.096 8.192 6.144 13.312 9.216 0 0 1.024 0 1.024 1.024H499.712c3.072 1.024 5.12 1.024 8.192 1.024H514.048c3.072 0 6.144-1.024 8.192-1.024h6.144s1.024 0 1.024-1.024c1.024 0 1.024-1.024 2.048-1.024 4.096-2.048 8.192-5.12 11.264-8.192l1.024-1.024 3.072-3.072c0-1.024 1.024-1.024 1.024-2.048s1.024-1.024 1.024-2.048v-1.024l158.72-274.432c14.336-21.504 7.168-49.152-14.336-61.44z"/>
    <path d="M512 5.12C232.448 5.12 5.12 232.448 5.12 512S232.448 1018.88 512 1018.88 1018.88 791.552 1018.88 512 791.552 5.12 512 5.12z m0 923.648C281.6 928.768 95.232 742.4 95.232 512S281.6 95.232 512 95.232 928.768 281.6 928.768 512 742.4 928.768 512 928.768z"/>
</svg>