<svg viewBox="0 0 1024 1024" version="1.1" xmlns="http://www.w3.org/2000/svg" >
    <path d="M512 960A448 448 0 1 1 512 64a448 448 0 0 1 0 896zM414.336 634.24c6.72 0 13.44-0.96 21.12-0.96a178.432 178.432 0 0 1-6.72-46.208c0-97.216 82.752-176.128 188.672-176.128 6.72 0 14.4 0 21.12 0.96C619.328 322.432 523.072 256 414.336 256 292.096 256 192 338.752 192 444.608c0 61.632 32.704 111.68 88.512 150.144l-22.08 66.432 77.952-38.528c27.904 5.76 50.048 11.52 77.952 11.52z m325.248 77.952c45.248-33.664 77.952-77.952 77.952-127.04 0-88.576-88.512-160.704-188.608-160.704-105.856 0-188.608 72.128-188.608 160.64 0 88.576 82.752 160.768 188.608 160.768 22.144 0 44.288-5.76 66.432-11.52l60.608 33.664-16.384-55.808zM305.536 381.12a34.624 34.624 0 1 1 69.312 0 34.624 34.624 0 0 1-69.312 0z m154.944-0.96a34.624 34.624 0 1 1 69.312 0 34.624 34.624 0 0 1-69.312 0zM547.2 535.04a24.064 24.064 0 1 1 48.128 0 24.064 24.064 0 0 1-48.128 0z m122.24 1.984a24.064 24.064 0 1 1 48.128 0 24.064 24.064 0 0 1-48.128 0z"></path>
</svg>